<svg version="1.1" id="Layer_1" xmlns="http://www.w3.org/2000/svg" xmlns:xlink="http://www.w3.org/1999/xlink" x="0px" y="0px"
	 width="100%" viewBox="0 0 1247 1291" enable-background="new 0 0 1247 1291" xml:space="preserve">
<path fill="#000000" opacity="1.000000" stroke="none" 
	d="
M419.000000,1292.000000 
	C279.678955,1292.000000 140.357880,1292.000000 1.018412,1292.000000 
	C1.018412,861.716858 1.018412,431.433716 1.018412,1.075278 
	C416.579865,1.075278 832.159729,1.075278 1247.869873,1.075278 
	C1247.869873,431.333313 1247.869873,861.666626 1247.872070,1292.000000 
	C1103.886719,1292.000000 959.899292,1292.000000 815.190063,1291.731812 
	C811.762634,1290.976074 809.057495,1290.064575 806.351501,1290.062256 
	C719.361145,1289.985718 632.370728,1289.996094 545.380310,1289.995605 
	C505.884552,1289.995361 466.388641,1289.961182 426.893280,1290.087280 
	C424.260162,1290.095703 421.630981,1291.333740 419.000000,1292.000000 
M387.547150,1154.952148 
	C396.295654,1163.620605 405.538818,1171.850342 413.695496,1181.043823 
	C434.206818,1204.162842 449.196442,1230.845581 461.896179,1258.848999 
	C465.786713,1267.427612 471.702850,1272.708862 481.178741,1274.190796 
	C488.387177,1275.317871 495.466949,1277.242065 502.649017,1278.567627 
	C534.270203,1284.403809 566.133301,1288.027100 598.294189,1288.984619 
	C650.594116,1290.541626 702.288757,1285.763916 753.567139,1275.335815 
	C766.755066,1272.653931 774.979858,1266.330444 780.219971,1253.786987 
	C801.217346,1203.524292 834.610352,1163.252686 880.695251,1134.076294 
	C934.645386,1099.920410 993.603699,1087.645020 1056.847656,1095.869263 
	C1066.182495,1097.083252 1074.773438,1096.779175 1081.419800,1088.828491 
	C1093.164795,1074.778320 1105.470703,1061.171143 1116.724487,1046.740967 
	C1162.893555,987.540649 1197.288086,922.021851 1220.724121,850.725769 
	C1222.889526,844.138489 1224.671875,837.140991 1221.600830,830.733093 
	C1218.334961,823.918274 1213.900269,817.584229 1209.426514,811.440430 
	C1179.269897,770.026367 1163.685181,723.519775 1161.158569,672.599365 
	C1158.992310,628.940796 1167.033447,587.202271 1186.302490,547.780640 
	C1194.888916,530.214172 1205.366821,513.848206 1217.391479,498.468170 
	C1223.054810,491.224518 1224.748169,483.388062 1221.970703,474.582703 
	C1193.406982,384.027313 1147.287231,303.587524 1083.217041,233.454437 
	C1076.060669,225.620911 1067.638916,223.235260 1057.159424,224.412476 
	C1041.430664,226.179367 1025.775879,229.723770 1009.715088,226.970505 
	C992.378967,223.998611 974.686523,222.691681 957.610046,218.692200 
	C895.022339,204.033539 844.875793,170.310379 808.831970,116.964905 
	C797.347534,99.967819 788.370728,81.239944 778.742310,63.041710 
	C774.375000,54.787342 768.956482,48.394081 759.563538,46.319962 
	C727.039062,39.138020 694.124573,33.864876 660.914917,32.395920 
	C631.697266,31.103542 602.336853,32.083752 573.073059,33.062443 
	C544.444397,34.019897 516.321106,39.365231 488.189636,44.635628 
	C473.644684,47.360600 464.639496,54.536049 458.894440,68.210075 
	C441.663818,109.221024 415.180145,143.444977 380.297760,171.069870 
	C333.064423,208.475983 278.563904,225.666794 219.005203,227.774399 
	C206.846420,228.204666 194.551086,226.041000 182.383011,224.548615 
	C172.393677,223.323486 163.849197,225.611786 157.090042,233.130310 
	C150.188354,240.807404 143.448013,248.636658 136.829559,256.560120 
	C84.155602,319.620300 45.497990,390.390961 19.834942,468.413849 
	C15.618161,481.234070 17.570452,491.796661 25.646534,502.395325 
	C54.365459,540.084595 72.142769,582.260132 77.263199,629.661072 
	C80.973152,664.005005 78.321938,697.713684 69.288338,730.992126 
	C60.315632,764.046265 44.457321,793.610291 23.686813,820.640198 
	C17.029057,829.304382 15.617835,838.417297 19.099955,848.764526 
	C34.408443,894.254578 52.861568,938.309326 77.431534,979.680481 
	C100.465034,1018.464539 127.161842,1054.502563 157.511627,1087.854004 
	C163.771210,1094.732666 171.175735,1097.985474 180.693146,1096.163330 
	C188.023392,1094.759888 195.458069,1093.558228 202.896347,1093.124390 
	C230.383835,1091.520630 257.349060,1095.532471 283.895721,1102.176758 
	C322.186981,1111.760620 357.038177,1128.385620 387.547150,1154.952148 
z"/>
<path fill="#D2D2D2" opacity="1.000000" stroke="none" 
	d="
M419.468658,1292.000000 
	C421.630981,1291.333740 424.260162,1290.095703 426.893280,1290.087280 
	C466.388641,1289.961182 505.884552,1289.995361 545.380310,1289.995605 
	C632.370728,1289.996094 719.361145,1289.985718 806.351501,1290.062256 
	C809.057495,1290.064575 811.762634,1290.976074 814.734131,1291.731812 
	C683.312439,1292.000000 551.624878,1292.000000 419.468658,1292.000000 
z"/>
<path fill="#FFFFFF" opacity="1.000000" stroke="none" 
	d="
M387.284027,1154.715454 
	C357.038177,1128.385620 322.186981,1111.760620 283.895721,1102.176758 
	C257.349060,1095.532471 230.383835,1091.520630 202.896347,1093.124390 
	C195.458069,1093.558228 188.023392,1094.759888 180.693146,1096.163330 
	C171.175735,1097.985474 163.771210,1094.732666 157.511627,1087.854004 
	C127.161842,1054.502563 100.465034,1018.464539 77.431534,979.680481 
	C52.861568,938.309326 34.408443,894.254578 19.099955,848.764526 
	C15.617835,838.417297 17.029057,829.304382 23.686813,820.640198 
	C44.457321,793.610291 60.315632,764.046265 69.288338,730.992126 
	C78.321938,697.713684 80.973152,664.005005 77.263199,629.661072 
	C72.142769,582.260132 54.365459,540.084595 25.646534,502.395325 
	C17.570452,491.796661 15.618161,481.234070 19.834942,468.413849 
	C45.497990,390.390961 84.155602,319.620300 136.829559,256.560120 
	C143.448013,248.636658 150.188354,240.807404 157.090042,233.130310 
	C163.849197,225.611786 172.393677,223.323486 182.383011,224.548615 
	C194.551086,226.041000 206.846420,228.204666 219.005203,227.774399 
	C278.563904,225.666794 333.064423,208.475983 380.297760,171.069870 
	C415.180145,143.444977 441.663818,109.221024 458.894440,68.210075 
	C464.639496,54.536049 473.644684,47.360600 488.189636,44.635628 
	C516.321106,39.365231 544.444397,34.019897 573.073059,33.062443 
	C602.336853,32.083752 631.697266,31.103542 660.914917,32.395920 
	C694.124573,33.864876 727.039062,39.138020 759.563538,46.319962 
	C768.956482,48.394081 774.375000,54.787342 778.742310,63.041710 
	C788.370728,81.239944 797.347534,99.967819 808.831970,116.964905 
	C844.875793,170.310379 895.022339,204.033539 957.610046,218.692200 
	C974.686523,222.691681 992.378967,223.998611 1009.715088,226.970505 
	C1025.775879,229.723770 1041.430664,226.179367 1057.159424,224.412476 
	C1067.638916,223.235260 1076.060669,225.620911 1083.217041,233.454437 
	C1147.287231,303.587524 1193.406982,384.027313 1221.970703,474.582703 
	C1224.748169,483.388062 1223.054810,491.224518 1217.391479,498.468170 
	C1205.366821,513.848206 1194.888916,530.214172 1186.302490,547.780640 
	C1167.033447,587.202271 1158.992310,628.940796 1161.158569,672.599365 
	C1163.685181,723.519775 1179.269897,770.026367 1209.426514,811.440430 
	C1213.900269,817.584229 1218.334961,823.918274 1221.600830,830.733093 
	C1224.671875,837.140991 1222.889526,844.138489 1220.724121,850.725769 
	C1197.288086,922.021851 1162.893555,987.540649 1116.724487,1046.740967 
	C1105.470703,1061.171143 1093.164795,1074.778320 1081.419800,1088.828491 
	C1074.773438,1096.779175 1066.182495,1097.083252 1056.847656,1095.869263 
	C993.603699,1087.645020 934.645386,1099.920410 880.695251,1134.076294 
	C834.610352,1163.252686 801.217346,1203.524292 780.219971,1253.786987 
	C774.979858,1266.330444 766.755066,1272.653931 753.567139,1275.335815 
	C702.288757,1285.763916 650.594116,1290.541626 598.294189,1288.984619 
	C566.133301,1288.027100 534.270203,1284.403809 502.649017,1278.567627 
	C495.466949,1277.242065 488.387177,1275.317871 481.178741,1274.190796 
	C471.702850,1272.708862 465.786713,1267.427612 461.896179,1258.848999 
	C449.196442,1230.845581 434.206818,1204.162842 413.695496,1181.043823 
	C405.538818,1171.850342 396.295654,1163.620605 387.284027,1154.715454 
M715.723694,711.198425 
	C723.887573,695.823486 728.808228,679.389099 728.649231,662.038269 
	C728.267212,620.364075 706.073669,576.582214 660.781311,559.791382 
	C636.278381,550.707642 611.174500,547.747375 586.132935,556.797485 
	C552.478516,568.960327 529.098145,591.997253 517.806030,626.272217 
	C513.369507,639.738464 510.417847,653.537598 511.876831,668.089111 
	C514.135559,690.616943 522.173889,710.532104 536.471191,728.024292 
	C563.325928,760.880066 598.044373,773.803650 639.437561,766.479797 
	C673.035339,760.535156 698.464417,741.747620 715.723694,711.198425 
M490.918518,366.604156 
	C498.170776,374.396240 504.973511,382.674072 512.764526,389.883972 
	C531.672058,407.381226 553.847595,419.127563 578.946594,425.132477 
	C601.238647,430.465820 623.667969,430.689362 646.295471,427.168213 
	C685.498535,421.067688 719.607178,405.222046 745.031433,374.114197 
	C777.662048,334.188873 791.442139,287.871002 783.384216,237.059204 
	C774.014343,177.974716 739.818970,136.356415 685.461548,111.737030 
	C655.837463,98.319817 624.593933,96.122353 592.623413,100.835068 
	C551.348022,106.919395 517.401855,125.955482 491.959442,158.932037 
	C463.906189,195.292511 449.019104,236.076477 455.024536,282.702148 
	C459.018982,313.714722 470.734283,341.635101 490.918518,366.604156 
M206.422607,311.939423 
	C184.990158,322.267944 165.895248,335.904175 150.808624,354.314636 
	C114.700645,398.377747 102.174942,448.072723 117.114555,503.731262 
	C132.415359,560.735535 166.629776,600.377380 223.711746,618.611511 
	C251.516937,627.493591 279.977600,631.296021 308.816315,625.324951 
	C361.034637,614.513367 399.085480,584.408020 423.357452,537.302002 
	C442.138794,500.851868 447.811218,462.247437 437.848389,422.060669 
	C429.282227,387.507782 410.564789,359.189301 383.610596,336.104431 
	C354.359436,311.052368 320.461792,297.778809 282.093994,296.127563 
	C255.865707,294.998779 230.898605,300.665192 206.422607,311.939423 
M384.472931,983.976807 
	C435.787292,935.957458 455.057312,878.431946 434.726593,809.978333 
	C424.625671,775.968628 406.032349,747.110229 376.729370,726.127808 
	C341.877777,701.172302 303.261261,689.827759 260.205078,693.674377 
	C239.686493,695.507507 220.326675,700.616333 201.999847,709.836792 
	C177.171936,722.327942 157.704376,740.990295 141.655396,763.316650 
	C124.028503,787.838135 112.945290,814.945312 110.935608,845.381042 
	C109.192322,871.782471 114.086487,897.049744 124.168159,921.368652 
	C151.832245,988.099976 209.989609,1021.527100 274.374207,1024.773071 
	C284.667725,1025.291992 295.217682,1023.349548 305.471283,1021.538391 
	C334.941254,1016.332764 360.993896,1003.592102 384.472931,983.976807 
M811.084534,527.428101 
	C839.518921,593.974976 908.189514,637.062378 985.883545,626.047424 
	C1026.267334,620.322083 1060.630249,602.960754 1087.506592,571.988770 
	C1121.425537,532.900879 1133.420898,487.006744 1126.465332,436.396423 
	C1120.880737,395.762024 1101.606567,361.973053 1069.974731,335.603516 
	C1039.943726,310.568573 1005.252319,297.316223 966.185120,296.127136 
	C935.107849,295.181213 906.284119,303.318390 879.763000,319.468964 
	C822.375793,354.416199 795.887878,406.053467 798.225647,472.633759 
	C798.880249,491.276459 803.216919,509.475433 811.084534,527.428101 
M751.335876,1156.838257 
	C779.037903,1119.755615 790.597107,1078.267212 783.736206,1032.391357 
	C777.513672,990.784424 758.208862,956.003967 725.501770,929.227112 
	C688.636414,899.045776 646.299011,886.307129 598.985535,892.351013 
	C565.682861,896.605225 535.817932,909.826660 510.892792,932.483459 
	C462.931641,976.079834 445.217102,1030.047363 458.845459,1093.501587 
	C468.149109,1136.819946 491.857635,1170.713867 529.242493,1194.816162 
	C566.251709,1218.676147 606.540466,1227.260986 649.820862,1219.267090 
	C691.239502,1211.617188 724.954834,1190.677490 751.335876,1156.838257 
M854.588806,733.084778 
	C811.823914,772.575745 792.753540,821.250122 799.038818,879.210327 
	C802.895142,914.771301 817.856995,945.640015 842.759705,971.240234 
	C883.165710,1012.778015 932.154541,1030.954590 989.869690,1021.842346 
	C1031.891235,1015.207947 1066.517578,994.542603 1092.717529,961.115234 
	C1124.026123,921.169617 1134.986694,875.719727 1124.831787,825.832153 
	C1107.794556,742.133057 1028.143188,675.260315 928.219849,696.693115 
	C900.828918,702.568298 876.433533,714.426025 854.588806,733.084778 
z"/>
<path fill="#000000" opacity="1.000000" stroke="none" 
	d="
M715.533203,711.513489 
	C698.464417,741.747620 673.035339,760.535156 639.437561,766.479797 
	C598.044373,773.803650 563.325928,760.880066 536.471191,728.024292 
	C522.173889,710.532104 514.135559,690.616943 511.876831,668.089111 
	C510.417847,653.537598 513.369507,639.738464 517.806030,626.272217 
	C529.098145,591.997253 552.478516,568.960327 586.132935,556.797485 
	C611.174500,547.747375 636.278381,550.707642 660.781311,559.791382 
	C706.073669,576.582214 728.267212,620.364075 728.649231,662.038269 
	C728.808228,679.389099 723.887573,695.823486 715.533203,711.513489 
z"/>
<path fill="#000000" opacity="1.000000" stroke="none" 
	d="
M490.692505,366.327576 
	C470.734283,341.635101 459.018982,313.714722 455.024536,282.702148 
	C449.019104,236.076477 463.906189,195.292511 491.959442,158.932037 
	C517.401855,125.955482 551.348022,106.919395 592.623413,100.835068 
	C624.593933,96.122353 655.837463,98.319817 685.461548,111.737030 
	C739.818970,136.356415 774.014343,177.974716 783.384216,237.059204 
	C791.442139,287.871002 777.662048,334.188873 745.031433,374.114197 
	C719.607178,405.222046 685.498535,421.067688 646.295471,427.168213 
	C623.667969,430.689362 601.238647,430.465820 578.946594,425.132477 
	C553.847595,419.127563 531.672058,407.381226 512.764526,389.883972 
	C504.973511,382.674072 498.170776,374.396240 490.692505,366.327576 
M601.321594,124.828575 
	C599.508179,125.043785 597.677307,125.162819 595.883972,125.488647 
	C569.850769,130.218689 546.998352,141.523666 527.659973,159.505920 
	C489.833527,194.679749 472.955536,237.790314 482.353943,289.085510 
	C494.913727,357.635193 559.003296,406.521942 624.444641,402.257019 
	C669.205078,399.339966 705.167786,380.546448 732.105225,344.867889 
	C754.886169,314.694702 763.679321,280.423431 757.503906,243.241180 
	C751.486084,207.007812 734.069580,176.627548 705.016968,153.613480 
	C674.846924,129.714172 640.403992,120.388535 601.321594,124.828575 
z"/>
<path fill="#000000" opacity="1.000000" stroke="none" 
	d="
M206.749054,311.750885 
	C230.898605,300.665192 255.865707,294.998779 282.093994,296.127563 
	C320.461792,297.778809 354.359436,311.052368 383.610596,336.104431 
	C410.564789,359.189301 429.282227,387.507782 437.848389,422.060669 
	C447.811218,462.247437 442.138794,500.851868 423.357452,537.302002 
	C399.085480,584.408020 361.034637,614.513367 308.816315,625.324951 
	C279.977600,631.296021 251.516937,627.493591 223.711746,618.611511 
	C166.629776,600.377380 132.415359,560.735535 117.114555,503.731262 
	C102.174942,448.072723 114.700645,398.377747 150.808624,354.314636 
	C165.895248,335.904175 184.990158,322.267944 206.749054,311.750885 
M174.916702,557.572449 
	C184.890198,566.084290 194.077148,575.810059 204.986069,582.878113 
	C236.515030,603.306274 271.210602,608.907654 307.795532,600.600830 
	C340.203674,593.242310 368.260376,578.105225 388.472229,550.929932 
	C410.469696,521.353943 420.652313,487.767609 417.567261,451.124298 
	C414.336029,412.744293 395.867218,381.563293 366.539368,357.202881 
	C333.946198,330.130096 295.832062,320.704895 254.374939,327.411072 
	C185.074814,338.621185 130.201355,406.583710 140.006699,480.965637 
	C143.804413,509.774597 155.104996,535.243591 174.916702,557.572449 
z"/>
<path fill="#000000" opacity="1.000000" stroke="none" 
	d="
M384.216003,984.220154 
	C360.993896,1003.592102 334.941254,1016.332764 305.471283,1021.538391 
	C295.217682,1023.349548 284.667725,1025.291992 274.374207,1024.773071 
	C209.989609,1021.527100 151.832245,988.099976 124.168159,921.368652 
	C114.086487,897.049744 109.192322,871.782471 110.935608,845.381042 
	C112.945290,814.945312 124.028503,787.838135 141.655396,763.316650 
	C157.704376,740.990295 177.171936,722.327942 201.999847,709.836792 
	C220.326675,700.616333 239.686493,695.507507 260.205078,693.674377 
	C303.261261,689.827759 341.877777,701.172302 376.729370,726.127808 
	C406.032349,747.110229 424.625671,775.968628 434.726593,809.978333 
	C455.057312,878.431946 435.787292,935.957458 384.216003,984.220154 
M212.430695,983.100769 
	C238.272247,997.428894 265.891205,1002.689026 295.179138,999.146851 
	C324.457031,995.605835 350.370972,984.044495 372.033356,964.229126 
	C430.339783,910.893921 430.546906,823.610474 382.413452,768.517761 
	C355.951660,738.229980 322.669434,721.495178 282.246307,721.270813 
	C230.311615,720.982483 188.974457,742.108032 160.788498,786.167358 
	C140.909958,817.240784 133.916458,851.438293 141.707520,887.891479 
	C150.706314,929.995422 174.507736,961.422485 212.430695,983.100769 
z"/>
<path fill="#000000" opacity="1.000000" stroke="none" 
	d="
M810.959229,527.065552 
	C803.216919,509.475433 798.880249,491.276459 798.225647,472.633759 
	C795.887878,406.053467 822.375793,354.416199 879.763000,319.468964 
	C906.284119,303.318390 935.107849,295.181213 966.185120,296.127136 
	C1005.252319,297.316223 1039.943726,310.568573 1069.974731,335.603516 
	C1101.606567,361.973053 1120.880737,395.762024 1126.465332,436.396423 
	C1133.420898,487.006744 1121.425537,532.900879 1087.506592,571.988770 
	C1060.630249,602.960754 1026.267334,620.322083 985.883545,626.047424 
	C908.189514,637.062378 839.518921,593.974976 810.959229,527.065552 
M902.930237,591.687378 
	C925.579041,601.807068 949.154785,605.396484 973.934753,603.238525 
	C1011.261475,599.987854 1042.546753,585.124329 1066.330322,556.060486 
	C1096.174194,519.590759 1108.554077,478.300446 1096.862427,431.681183 
	C1077.083252,352.813629 999.685486,308.097687 921.182251,331.056824 
	C852.643738,351.101624 813.139343,419.396698 823.230225,483.516174 
	C830.937317,532.488770 857.489075,568.899231 902.930237,591.687378 
z"/>
<path fill="#000000" opacity="1.000000" stroke="none" 
	d="
M751.128052,1157.127930 
	C724.954834,1190.677490 691.239502,1211.617188 649.820862,1219.267090 
	C606.540466,1227.260986 566.251709,1218.676147 529.242493,1194.816162 
	C491.857635,1170.713867 468.149109,1136.819946 458.845459,1093.501587 
	C445.217102,1030.047363 462.931641,976.079834 510.892792,932.483459 
	C535.817932,909.826660 565.682861,896.605225 598.985535,892.351013 
	C646.299011,886.307129 688.636414,899.045776 725.501770,929.227112 
	C758.208862,956.003967 777.513672,990.784424 783.736206,1032.391357 
	C790.597107,1078.267212 779.037903,1119.755615 751.128052,1157.127930 
M612.758240,917.062561 
	C607.979919,917.667297 603.188049,918.180847 598.425354,918.890564 
	C538.041199,927.888611 488.765289,977.914978 481.182556,1038.616333 
	C475.848694,1081.315186 488.988007,1118.767212 517.161682,1150.481201 
	C559.407288,1198.035400 624.293945,1207.725220 679.663574,1182.509155 
	C732.068115,1158.643555 763.877991,1102.583740 759.205139,1044.939087 
	C756.611084,1012.938721 744.437744,985.260132 722.647034,962.200134 
	C693.245239,931.085571 656.889282,915.531982 612.758240,917.062561 
z"/>
<path fill="#000000" opacity="1.000000" stroke="none" 
	d="
M854.856079,732.851318 
	C876.433533,714.426025 900.828918,702.568298 928.219849,696.693115 
	C1028.143188,675.260315 1107.794556,742.133057 1124.831787,825.832153 
	C1134.986694,875.719727 1124.026123,921.169617 1092.717529,961.115234 
	C1066.517578,994.542603 1031.891235,1015.207947 989.869690,1021.842346 
	C932.154541,1030.954590 883.165710,1012.778015 842.759705,971.240234 
	C817.856995,945.640015 802.895142,914.771301 799.038818,879.210327 
	C792.753540,821.250122 811.823914,772.575745 854.856079,732.851318 
M960.593445,721.091919 
	C951.518677,722.149719 942.322449,722.593750 933.387939,724.360718 
	C848.362122,741.176392 801.516113,830.276367 829.851318,907.097656 
	C854.067871,972.752686 919.173035,1012.149109 990.712219,997.680542 
	C1023.975159,990.953247 1051.039551,973.428528 1071.282593,946.123962 
	C1096.366089,912.290466 1107.266602,874.749329 1097.987793,832.851318 
	C1083.155273,765.875671 1029.370483,722.043457 960.593445,721.091919 
z"/>
<path id="gun_bullet_1" fill="#D2D2D2" opacity="1.000000" stroke="none" 
	d="
M601.767212,124.761070 
	C640.403992,120.388535 674.846924,129.714172 705.016968,153.613480 
	C734.069580,176.627548 751.486084,207.007812 757.503906,243.241180 
	C763.679321,280.423431 754.886169,314.694702 732.105225,344.867889 
	C705.167786,380.546448 669.205078,399.339966 624.444641,402.257019 
	C559.003296,406.521942 494.913727,357.635193 482.353943,289.085510 
	C472.955536,237.790314 489.833527,194.679749 527.659973,159.505920 
	C546.998352,141.523666 569.850769,130.218689 595.883972,125.488647 
	C597.677307,125.162819 599.508179,125.043785 601.767212,124.761070 
z"/>
<path id="gun_bullet_6" fill="#D2D2D2" opacity="1.000000" stroke="none" 
	d="
M174.672333,557.314392 
	C155.104996,535.243591 143.804413,509.774597 140.006699,480.965637 
	C130.201355,406.583710 185.074814,338.621185 254.374939,327.411072 
	C295.832062,320.704895 333.946198,330.130096 366.539368,357.202881 
	C395.867218,381.563293 414.336029,412.744293 417.567261,451.124298 
	C420.652313,487.767609 410.469696,521.353943 388.472229,550.929932 
	C368.260376,578.105225 340.203674,593.242310 307.795532,600.600830 
	C271.210602,608.907654 236.515030,603.306274 204.986069,582.878113 
	C194.077148,575.810059 184.890198,566.084290 174.672333,557.314392 
z"/>
<path id="gun_bullet_5" fill="#D2D2D2" opacity="1.000000" stroke="none" 
	d="
M212.095718,982.948486 
	C174.507736,961.422485 150.706314,929.995422 141.707520,887.891479 
	C133.916458,851.438293 140.909958,817.240784 160.788498,786.167358 
	C188.974457,742.108032 230.311615,720.982483 282.246307,721.270813 
	C322.669434,721.495178 355.951660,738.229980 382.413452,768.517761 
	C430.546906,823.610474 430.339783,910.893921 372.033356,964.229126 
	C350.370972,984.044495 324.457031,995.605835 295.179138,999.146851 
	C265.891205,1002.689026 238.272247,997.428894 212.095718,982.948486 
z"/>
<path id="gun_bullet_2" fill="#D2D2D2" opacity="1.000000" stroke="none" 
	d="
M902.605835,591.495483 
	C857.489075,568.899231 830.937317,532.488770 823.230225,483.516174 
	C813.139343,419.396698 852.643738,351.101624 921.182251,331.056824 
	C999.685486,308.097687 1077.083252,352.813629 1096.862427,431.681183 
	C1108.554077,478.300446 1096.174194,519.590759 1066.330322,556.060486 
	C1042.546753,585.124329 1011.261475,599.987854 973.934753,603.238525 
	C949.154785,605.396484 925.579041,601.807068 902.605835,591.495483 
z"/>
<path id="gun_bullet_4" fill="#D2D2D2" opacity="1.000000" stroke="none" 
	d="
M613.234009,917.058960 
	C656.889282,915.531982 693.245239,931.085571 722.647034,962.200134 
	C744.437744,985.260132 756.611084,1012.938721 759.205139,1044.939087 
	C763.877991,1102.583740 732.068115,1158.643555 679.663574,1182.509155 
	C624.293945,1207.725220 559.407288,1198.035400 517.161682,1150.481201 
	C488.988007,1118.767212 475.848694,1081.315186 481.182556,1038.616333 
	C488.765289,977.914978 538.041199,927.888611 598.425354,918.890564 
	C603.188049,918.180847 607.979919,917.667297 613.234009,917.058960 
z"/>
<path id="gun_bullet_3" fill="#D2D2D2" opacity="1.000000" stroke="none" 
	d="
M961.062927,721.091675 
	C1029.370483,722.043457 1083.155273,765.875671 1097.987793,832.851318 
	C1107.266602,874.749329 1096.366089,912.290466 1071.282593,946.123962 
	C1051.039551,973.428528 1023.975159,990.953247 990.712219,997.680542 
	C919.173035,1012.149109 854.067871,972.752686 829.851318,907.097656 
	C801.516113,830.276367 848.362122,741.176392 933.387939,724.360718 
	C942.322449,722.593750 951.518677,722.149719 961.062927,721.091675 
z"/>
</svg>