<?xml version="1.0" encoding="UTF-8" standalone="no"?>
<svg
   version="1.1"
   id="Layer_1"
   x="0px"
   y="0px"
   width="1385"
   viewBox="0 0 1385 1409"
   xml:space="preserve"
   sodipodi:docname="loading-gun.svg"
   height="1409"
   inkscape:version="1.2 (dc2aedaf03, 2022-05-15)"
   xmlns:inkscape="http://www.inkscape.org/namespaces/inkscape"
   xmlns:sodipodi="http://sodipodi.sourceforge.net/DTD/sodipodi-0.dtd"
   xmlns="http://www.w3.org/2000/svg"
   xmlns:svg="http://www.w3.org/2000/svg"><defs
   id="defs31" /><sodipodi:namedview
   id="namedview29"
   pagecolor="#ffffff"
   bordercolor="#666666"
   borderopacity="1.0"
   inkscape:showpageshadow="2"
   inkscape:pageopacity="0.0"
   inkscape:pagecheckerboard="0"
   inkscape:deskcolor="#d1d1d1"
   showgrid="false"
   inkscape:zoom="0.18280403"
   inkscape:cx="1252.7076"
   inkscape:cy="938.16314"
   inkscape:window-width="1920"
   inkscape:window-height="1010"
   inkscape:window-x="2873"
   inkscape:window-y="-6"
   inkscape:window-maximized="1"
   inkscape:current-layer="Layer_1" />















<rect
   style="fill:#000000;fill-rule:evenodd;stroke:#000000;stroke-width:0.57831;stroke-miterlimit:20"
   id="rect479"
   width="1384.9624"
   height="1408.6368"
   x="0.28915501"
   y="0.28915501" /><g
   id="g425"
   transform="translate(72.501706,44.082933)"><path
     fill="#000000"
     opacity="1"
     stroke="none"
     d="m 387.54715,1154.9521 c 8.7485,8.6685 17.99167,16.8982 26.14835,26.0917 20.51132,23.119 35.50094,49.8018 48.20068,77.8052 3.89053,8.5786 9.80667,13.8599 19.28256,15.3418 7.20844,1.1271 14.28821,3.0513 21.47028,4.3768 31.62118,5.8362 63.48428,9.4595 95.64517,10.417 52.29993,1.557 103.99457,-3.2207 155.27295,-13.6488 13.18793,-2.6819 21.41272,-9.0054 26.65283,-21.5488 20.99738,-50.2627 54.39038,-90.5343 100.47528,-119.7107 53.95014,-34.1559 112.90845,-46.4313 176.15245,-38.207 9.3348,1.214 17.9257,0.9099 24.5721,-7.0408 11.745,-14.0502 24.0509,-27.6574 35.3047,-42.0875 46.1691,-59.20035 80.5636,-124.71915 103.9996,-196.01523 2.1654,-6.58728 3.9478,-13.58478 0.8767,-19.99268 -3.2658,-6.81482 -7.7005,-13.14886 -12.1743,-19.29266 -30.1566,-41.41406 -45.7413,-87.92066 -48.2679,-138.84106 -2.1663,-43.65857 5.8748,-85.3971 25.1439,-124.81873 8.5864,-17.56647 19.0643,-33.93243 31.089,-49.31247 5.6633,-7.24365 7.3567,-15.08011 4.5792,-23.88547 -28.5637,-90.55539 -74.6835,-170.99518 -138.7537,-241.12826 -7.1563,-7.83353 -15.5781,-10.21918 -26.0576,-9.04196 -15.7287,1.76689 -31.3835,5.31129 -47.4443,2.55802 -17.33613,-2.97189 -35.02858,-4.27882 -52.10505,-8.2783 C 895.02234,204.03354 844.87579,170.31038 808.83197,116.96491 797.34753,99.967819 788.37073,81.239944 778.74231,63.04171 774.375,54.787342 768.95648,48.394081 759.56354,46.319962 727.03906,39.13802 694.12457,33.864876 660.91492,32.39592 c -29.21765,-1.292378 -58.57807,-0.312168 -87.84186,0.666523 -28.62866,0.957454 -56.75195,6.302788 -84.88342,11.573185 -14.54496,2.724972 -23.55014,9.900421 -29.2952,23.574447 -17.23062,41.010945 -43.7143,75.234905 -78.59668,102.859795 -47.23334,37.40611 -101.73386,54.59692 -161.29256,56.70453 -12.15878,0.43027 -24.45411,-1.7334 -36.62219,-3.22579 -9.98933,-1.22512 -18.53381,1.06318 -25.29297,8.5817 -6.90169,7.67709 -13.64203,15.50635 -20.26048,23.42981 -52.673958,63.06018 -91.33157,133.83084 -116.994618,211.85373 -4.216781,12.82022 -2.26449,23.38281 5.811592,33.98148 28.718925,37.68927 46.496235,79.8648 51.616665,127.26574 3.709953,34.34393 1.058739,68.05261 -7.974861,101.33106 -8.972706,33.05413 -24.831017,62.61816 -45.601525,89.64807 -6.657756,8.66418 -8.068978,17.7771 -4.586858,28.12433 15.308488,45.49005 33.761613,89.5448 58.331579,130.91595 23.033496,38.78402 49.730306,74.82212 80.080096,108.17352 6.25958,6.8787 13.6641,10.1315 23.18152,8.3093 7.33024,-1.4034 14.76492,-2.6051 22.2032,-3.0389 27.48748,-1.6038 54.45271,2.4081 80.99937,9.0524 38.29126,9.5838 73.14246,26.2088 103.65143,52.7753 z"
     id="path2"
     sodipodi:nodetypes="ccssssssssssssssssssssssssssscsssscssssssssscsc" /><path
     fill="#ffffff"
     opacity="1"
     stroke="none"
     d="m 387.28403,1154.7155 c -30.24585,-26.3299 -65.09705,-42.9549 -103.38831,-52.5387 -26.54666,-6.6443 -53.51189,-10.6562 -80.99937,-9.0524 -7.43828,0.4338 -14.87296,1.6355 -22.2032,3.0389 -9.51742,1.8222 -16.92194,-1.4306 -23.18152,-8.3093 -30.34979,-33.3514 -57.0466,-69.3895 -80.080096,-108.17352 C 52.861568,938.30933 34.408443,894.25458 19.099955,848.76453 15.617835,838.4173 17.029057,829.30438 23.686813,820.6402 44.457321,793.61029 60.315632,764.04626 69.288338,730.99213 78.321938,697.71368 80.973152,664.005 77.263199,629.66107 72.142769,582.26013 54.365459,540.0846 25.646534,502.39533 17.570452,491.79666 15.618161,481.23407 19.834942,468.41385 45.49799,390.39096 84.155602,319.6203 136.82956,256.56012 c 6.61845,-7.92346 13.35879,-15.75272 20.26048,-23.42981 6.75916,-7.51852 15.30364,-9.80682 25.29297,-8.5817 12.16808,1.49239 24.46341,3.65606 36.62219,3.22579 59.5587,-2.10761 114.05922,-19.29842 161.29256,-56.70453 34.88238,-27.62489 61.36606,-61.84885 78.59668,-102.859795 5.74506,-13.674026 14.75024,-20.849475 29.2952,-23.574447 28.13147,-5.270397 56.25476,-10.615731 84.88342,-11.573185 29.26379,-0.978691 58.62421,-1.958901 87.84186,-0.666523 33.20965,1.468956 66.12414,6.7421 98.64862,13.924042 9.39294,2.074119 14.81146,8.46738 19.17877,16.721748 9.62842,18.198234 18.60522,36.926109 30.08966,53.9232 36.04382,53.34547 86.19037,87.06863 148.77808,101.72729 17.07647,3.99948 34.76892,5.30641 52.10505,8.2783 16.0608,2.75327 31.7156,-0.79113 47.4443,-2.55802 10.4795,-1.17722 18.9013,1.20843 26.0576,9.04196 64.0702,70.13308 110.19,150.57287 138.7537,241.12826 2.7775,8.80536 1.0841,16.64182 -4.5792,23.88547 -12.0247,15.38004 -22.5026,31.746 -31.089,49.31247 -19.2691,39.42163 -27.3102,81.16016 -25.1439,124.81873 2.5266,50.9204 18.1113,97.427 48.2679,138.84106 4.4738,6.1438 8.9085,12.47784 12.1743,19.29266 3.0711,6.4079 1.2887,13.4054 -0.8767,19.99268 -23.436,71.29608 -57.8305,136.81488 -103.9996,196.01523 -11.2538,14.4301 -23.5597,28.0373 -35.3047,42.0875 -6.6464,7.9507 -15.2373,8.2548 -24.5721,7.0408 -63.244,-8.2243 -122.20231,4.0511 -176.15245,38.207 -46.0849,29.1764 -79.4779,69.448 -100.47528,119.7107 -5.24011,12.5434 -13.4649,18.8669 -26.65283,21.5488 -51.27838,10.4281 -102.97302,15.2058 -155.27295,13.6488 -32.16089,-0.9575 -64.02399,-4.5808 -95.64517,-10.417 -7.18207,-1.3255 -14.26184,-3.2497 -21.47028,-4.3768 -9.47589,-1.4819 -15.39203,-6.7632 -19.28256,-15.3418 -12.69974,-28.0034 -27.68936,-54.6862 -48.20068,-77.8052 -8.15668,-9.1935 -17.39985,-17.4232 -26.41147,-26.3283 M 715.72369,711.19843 c 8.16388,-15.37494 13.08454,-31.80933 12.92554,-49.16016 -0.38202,-41.6742 -22.57556,-85.45606 -67.86792,-102.24689 -24.50293,-9.08374 -49.60681,-12.044 -74.64838,-2.99389 -33.65441,12.16284 -57.03478,35.19976 -68.3269,69.47473 -4.43652,13.46624 -7.38818,27.26538 -5.9292,41.81689 2.25873,22.52783 10.29706,42.44299 24.59436,59.93518 26.85474,32.85578 61.57318,45.77936 102.96637,38.45551 33.59778,-5.94464 59.02686,-24.73218 76.28613,-55.28137 M 490.91852,366.60416 c 7.25226,7.79208 14.05499,16.06991 21.84601,23.27981 18.90753,17.49726 41.08306,29.24359 66.18206,35.24851 22.29206,5.33334 44.72138,5.55688 67.34888,2.03573 39.20306,-6.10052 73.31171,-21.94616 98.73596,-53.05401 32.63062,-39.92533 46.41071,-86.2432 38.35279,-137.055 -9.36988,-59.08448 -43.56525,-100.70279 -97.92267,-125.32217 -29.62409,-13.417213 -60.86762,-15.614677 -92.83814,-10.90196 -41.27539,6.08432 -75.22156,25.12041 -100.66397,58.09697 -28.05325,36.36047 -42.94034,77.14444 -36.9349,123.77011 3.99444,31.01257 15.70974,58.93295 35.89398,83.90201 M 206.42261,311.93942 c -21.43245,10.32852 -40.52736,23.96475 -55.61399,42.37522 -36.10798,44.06311 -48.63368,93.75808 -33.69407,149.41662 15.30081,57.00428 49.51523,96.64612 106.5972,114.88025 27.80519,8.88208 56.26585,12.68451 85.10456,6.71344 52.21833,-10.81158 90.26917,-40.91693 114.54114,-88.02295 18.78134,-36.45013 24.45377,-75.05456 14.49094,-115.24133 -8.56616,-34.55289 -27.2836,-62.87137 -54.23779,-85.95624 -29.25116,-25.05206 -63.14881,-38.32562 -101.51661,-39.97687 -26.22828,-1.12878 -51.19539,4.53763 -75.67138,15.81186 m 178.05032,672.03739 c 51.31436,-48.01935 70.58438,-105.54486 50.25366,-173.99848 -10.10092,-34.0097 -28.69424,-62.8681 -57.99722,-83.85052 -34.85159,-24.95551 -73.46811,-36.30005 -116.52429,-32.45343 -20.51859,1.83313 -39.87841,6.94195 -58.20523,16.16241 -24.82791,12.49115 -44.29547,31.1535 -60.34445,53.47986 -17.6269,24.52148 -28.71011,51.62866 -30.71979,82.06439 -1.74329,26.40143 3.15088,51.6687 13.23255,75.98761 27.66408,66.73133 85.82145,100.15845 150.20605,103.40445 10.29352,0.5189 20.84347,-1.4236 31.09707,-3.2347 29.46997,-5.2056 55.52262,-17.9463 79.00165,-37.56159 M 811.08453,527.4281 c 28.43439,66.54688 97.10498,109.63428 174.79902,98.61932 40.38375,-5.72534 74.74665,-23.08667 101.62305,-54.05865 33.9189,-39.08789 45.9143,-84.98203 38.9587,-135.59235 -5.5846,-40.6344 -24.8587,-74.42337 -56.4906,-100.7929 -30.031,-25.03495 -64.7224,-38.2873 -103.78958,-39.47638 -31.07727,-0.94593 -59.901,7.19125 -86.42212,23.34182 -57.38721,34.94724 -83.87512,86.58451 -81.53735,153.1648 0.6546,18.6427 4.99127,36.84167 12.85888,54.79434 m -59.74865,629.4102 c 27.70202,-37.0827 39.26123,-78.5711 32.40033,-124.4469 -6.22254,-41.60698 -25.52735,-76.38743 -58.23444,-103.16429 -36.86536,-30.18133 -79.20276,-42.91998 -126.51623,-36.8761 -33.30268,4.25422 -63.16761,17.47565 -88.09275,40.13245 -47.96115,43.59637 -65.67569,97.56394 -52.04733,161.01814 9.30365,43.3183 33.01218,77.2123 70.39703,101.3146 37.00922,23.8599 77.29798,32.4448 120.57837,24.4509 41.41864,-7.6499 75.13397,-28.5896 101.51502,-62.4288 M 854.58881,733.08478 c -42.7649,39.49096 -61.83527,88.16534 -55.54999,146.12555 3.85632,35.56097 18.81817,66.42968 43.72089,92.0299 40.406,41.53777 89.39483,59.71437 147.10998,50.60207 42.02151,-6.6344 76.64791,-27.2997 102.84781,-60.72707 31.3086,-39.94561 42.2692,-85.3955 32.1143,-135.28308 -17.0372,-83.69909 -96.6886,-150.57184 -196.61195,-129.13903 -27.39093,5.87518 -51.78632,17.7329 -73.63104,36.39166 z"
     id="path6" /><path
     fill="#000000"
     opacity="1"
     stroke="none"
     d="m 715.5332,711.51349 c -17.06878,30.23413 -42.49786,49.02167 -76.09564,54.96631 -41.39319,7.32385 -76.11163,-5.59973 -102.96637,-38.45551 -14.2973,-17.49219 -22.33563,-37.40735 -24.59436,-59.93518 -1.45898,-14.55151 1.49268,-28.35065 5.9292,-41.81689 11.29212,-34.27497 34.67249,-57.31189 68.3269,-69.47473 25.04157,-9.05011 50.14545,-6.08985 74.64838,2.99389 45.29236,16.79083 67.4859,60.57269 67.86792,102.24689 0.159,17.35083 -4.76166,33.78522 -13.11603,49.47522 z"
     id="path8" /><path
     fill="#000000"
     opacity="1"
     stroke="none"
     d="m 490.6925,366.32758 c -19.95822,-24.69248 -31.67352,-52.61286 -35.66796,-83.62543 -6.00544,-46.62567 8.88165,-87.40964 36.9349,-123.77011 25.44241,-32.97656 59.38858,-52.01265 100.66397,-58.09697 31.97052,-4.712717 63.21405,-2.515253 92.83814,10.90196 54.35742,24.61938 88.55279,66.23769 97.92267,125.32217 8.05792,50.8118 -5.72217,97.12967 -38.35279,137.055 -25.42425,31.10785 -59.5329,46.95349 -98.73596,53.05401 -22.6275,3.52115 -45.05682,3.29761 -67.34888,-2.03573 -25.099,-6.00492 -47.27453,-17.75125 -66.18206,-35.24851 -7.79102,-7.2099 -14.59375,-15.48773 -22.07203,-23.55639 m 110.62909,-241.499 c -1.81341,0.21521 -3.64428,0.33424 -5.43762,0.66007 -26.0332,4.73004 -48.88562,16.03502 -68.224,34.01727 -37.82644,35.17383 -54.70443,78.28439 -45.30603,129.57959 12.55979,68.54968 76.64936,117.43643 142.0907,113.17151 44.76044,-2.91705 80.72315,-21.71057 107.66059,-57.38913 22.78094,-30.17319 31.57409,-64.44446 25.39868,-101.62671 -6.01783,-36.23337 -23.43433,-66.61363 -52.48694,-89.6277 -30.17005,-23.89931 -64.61298,-33.22494 -103.69538,-28.7849 z"
     id="path10" /><path
     fill="#000000"
     opacity="1"
     stroke="none"
     d="m 206.74905,311.75088 c 24.14955,-11.08569 49.11666,-16.7521 75.34494,-15.62332 38.3678,1.65125 72.26545,14.92481 101.51661,39.97687 26.95419,23.08487 45.67163,51.40335 54.23779,85.95624 9.96283,40.18677 4.2904,78.7912 -14.49094,115.24133 -24.27197,47.10602 -62.32281,77.21137 -114.54114,88.02295 -28.83871,5.97107 -57.29937,2.16864 -85.10456,-6.71344 -57.08197,-18.23413 -91.29639,-57.87597 -106.5972,-114.88025 -14.93961,-55.65854 -2.41391,-105.35351 33.69407,-149.41662 15.08663,-18.41047 34.18154,-32.0467 55.94043,-42.56376 M 174.9167,557.57245 c 9.9735,8.51184 19.16045,18.23761 30.06937,25.30566 31.52896,20.42816 66.22453,26.02954 102.80946,17.72272 32.40814,-7.35852 60.46485,-22.4956 80.6767,-49.6709 21.99747,-29.57599 32.18008,-63.16232 29.09503,-99.80563 -3.23123,-38.38001 -21.70004,-69.56101 -51.02789,-93.92142 C 333.9462,330.1301 295.83206,320.7049 254.37494,327.41107 185.07481,338.62119 130.20135,406.58371 140.0067,480.96564 c 3.79771,28.80896 15.0983,54.27795 34.91,76.60681 z"
     id="path12" /><path
     fill="#000000"
     opacity="1"
     stroke="none"
     d="m 384.216,984.22015 c -23.2221,19.37195 -49.27475,32.11265 -78.74472,37.31825 -10.2536,1.8111 -20.80355,3.7536 -31.09707,3.2347 -64.3846,-3.246 -122.54197,-36.67312 -150.20605,-103.40445 -10.08167,-24.31891 -14.97584,-49.58618 -13.23255,-75.98761 2.00968,-30.43573 13.09289,-57.54291 30.71979,-82.06439 16.04898,-22.32636 35.51654,-40.98871 60.34445,-53.47986 18.32682,-9.22046 37.68664,-14.32928 58.20523,-16.16241 43.05618,-3.84662 81.6727,7.49792 116.52429,32.45343 29.30298,20.98242 47.8963,49.84082 57.99722,83.85052 20.33072,68.45362 1.0607,125.97913 -50.51059,174.24182 m -171.78531,-1.11938 c 25.84156,14.32812 53.46052,19.58823 82.74845,16.04608 29.27789,-3.54102 55.19183,-15.10236 76.85422,-34.91772 58.30642,-53.33521 58.51355,-140.61866 10.38009,-195.71137 -26.46179,-30.28778 -59.74402,-47.02258 -100.16714,-47.24695 -51.9347,-0.28833 -93.27185,20.83722 -121.45781,64.89655 -19.87854,31.07342 -26.87204,65.27093 -19.08098,101.72412 8.99879,42.10394 32.80022,73.53101 70.72317,95.20929 z"
     id="path14" /><path
     fill="#000000"
     opacity="1"
     stroke="none"
     d="m 810.95923,527.06555 c -7.74231,-17.59012 -12.07898,-35.78909 -12.73358,-54.43179 -2.33777,-66.58029 24.15014,-118.21756 81.53735,-153.1648 26.52112,-16.15057 55.34485,-24.28775 86.42212,-23.34182 39.06718,1.18908 73.75858,14.44143 103.78958,39.47638 31.6319,26.36953 50.906,60.1585 56.4906,100.7929 6.9556,50.61032 -5.0398,96.50446 -38.9587,135.59235 -26.8764,30.97198 -61.2393,48.33331 -101.62305,54.05865 -77.69404,11.01496 -146.36463,-32.07244 -174.92432,-98.98187 m 91.97101,64.62183 c 22.6488,10.11969 46.22454,13.7091 71.00451,11.55114 37.32675,-3.25067 68.61205,-18.11419 92.39555,-47.17803 29.8439,-36.46973 42.2238,-77.76004 30.5321,-124.37931 -19.7791,-78.86755 -97.17691,-123.58349 -175.68015,-100.62436 -68.53851,20.0448 -108.04291,88.33988 -97.95202,152.45935 7.70709,48.9726 34.25884,85.38306 79.70001,108.17121 z"
     id="path16" /><path
     fill="#000000"
     opacity="1"
     stroke="none"
     d="m 751.12805,1157.1279 c -26.17322,33.5496 -59.88855,54.4893 -101.30719,62.1392 -43.28039,7.9939 -83.56915,-0.591 -120.57837,-24.4509 -37.38485,-24.1023 -61.09338,-57.9963 -70.39703,-101.3146 -13.62836,-63.4542 4.08618,-117.42177 52.04733,-161.01814 24.92514,-22.6568 54.79007,-35.87823 88.09275,-40.13245 47.31347,-6.04388 89.65087,6.69477 126.51623,36.8761 32.70709,26.77686 52.0119,61.55731 58.23444,103.16429 6.8609,45.8758 -4.69831,87.3642 -32.60816,124.7365 M 612.75824,917.06256 c -4.77832,0.60474 -9.57019,1.11829 -14.33289,1.828 -60.38415,8.99805 -109.66006,59.02442 -117.24279,119.72574 -5.33387,42.6989 7.80545,80.1509 35.97912,111.8649 42.24561,47.5542 107.13226,57.244 162.50189,32.028 52.40455,-23.8656 84.21442,-79.9255 79.54157,-137.5701 -2.59406,-32.0004 -14.7674,-59.67897 -36.55811,-82.73897 -29.40179,-31.11456 -65.75775,-46.66815 -109.88879,-45.13757 z"
     id="path18" /><path
     fill="#000000"
     opacity="1"
     stroke="none"
     d="m 854.85608,732.85132 c 21.57745,-18.4253 45.97284,-30.28302 73.36377,-36.1582 99.92335,-21.43281 179.57475,45.43994 196.61195,129.13903 10.1549,49.88758 -0.8057,95.33747 -32.1143,135.28308 -26.1999,33.42737 -60.8263,54.09267 -102.84781,60.72707 -57.71515,9.1123 -106.70398,-9.0643 -147.10998,-50.60207 -24.90272,-25.60022 -39.86457,-56.46893 -43.72089,-92.0299 -6.28528,-57.96021 12.78509,-106.63459 55.81726,-146.35901 m 105.73736,-11.7594 c -9.07476,1.0578 -18.27099,1.50183 -27.2055,3.2688 -85.02582,16.81567 -131.87183,105.91565 -103.53662,182.73694 24.21655,65.65503 89.32172,105.05144 160.8609,90.58288 33.26298,-6.72729 60.32738,-24.25201 80.57038,-51.55658 25.0835,-33.83349 35.984,-71.37463 26.7052,-113.27264 -14.8325,-66.97565 -68.6173,-110.80786 -137.39436,-111.7594 z"
     id="path20" /><path
     id="gun_bullet_1"
     fill="#d2d2d2"
     opacity="1"
     stroke="none"
     d="m 601.76721,124.76107 c 38.63678,-4.37253 73.07971,4.9531 103.24976,28.85241 29.05261,23.01407 46.46911,53.39433 52.48694,89.6277 6.17541,37.18225 -2.61774,71.45352 -25.39868,101.62671 -26.93744,35.67856 -62.90015,54.47208 -107.66059,57.38913 -65.44134,4.26492 -129.53091,-44.62183 -142.0907,-113.17151 -9.3984,-51.2952 7.47959,-94.40576 45.30603,-129.57959 19.33838,-17.98225 42.1908,-29.28723 68.224,-34.01727 1.79334,-0.32583 3.62421,-0.44486 5.88324,-0.72758 z" /><path
     id="gun_bullet_6"
     fill="#d2d2d2"
     opacity="1"
     stroke="none"
     d="M 174.67233,557.31439 C 155.105,535.24359 143.80441,509.7746 140.0067,480.96564 c -9.80535,-74.38193 45.06811,-142.34445 114.36824,-153.55457 41.45712,-6.70617 79.57126,2.71903 112.16443,29.79181 29.32785,24.36041 47.79666,55.54141 51.02789,93.92142 3.08505,36.64331 -7.09756,70.22964 -29.09503,99.80563 -20.21185,27.1753 -48.26856,42.31238 -80.6767,49.6709 -36.58493,8.30682 -71.2805,2.70544 -102.80946,-17.72272 -10.90892,-7.06805 -20.09587,-16.79382 -30.31374,-25.56372 z" /><path
     id="gun_bullet_5"
     fill="#d2d2d2"
     opacity="1"
     stroke="none"
     d="m 212.09572,982.94849 c -37.58798,-21.526 -61.38941,-52.95307 -70.3882,-95.05701 -7.79106,-36.45319 -0.79756,-70.6507 19.08098,-101.72412 28.18596,-44.05933 69.52311,-65.18488 121.45781,-64.89655 40.42312,0.22437 73.70535,16.95917 100.16714,47.24695 48.13346,55.09271 47.92633,142.37616 -10.38009,195.71137 -21.66239,19.81536 -47.57633,31.3767 -76.85422,34.91772 -29.28793,3.54215 -56.90689,-1.71796 -83.08342,-16.19836 z" /><path
     id="gun_bullet_2"
     fill="#d2d2d2"
     opacity="1"
     stroke="none"
     d="m 902.60583,591.49548 c -45.11676,-22.59625 -71.66851,-59.00671 -79.3756,-107.97931 -10.09089,-64.11947 29.41351,-132.41455 97.95202,-152.45935 78.50324,-22.95913 155.90105,21.75681 175.68015,100.62436 11.6917,46.61927 -0.6882,87.90958 -30.5321,124.37931 -23.7835,29.06384 -55.0688,43.92736 -92.39555,47.17803 -24.77997,2.15796 -48.35571,-1.43145 -71.32892,-11.74304 z" /><path
     id="gun_bullet_4"
     fill="#d2d2d2"
     opacity="1"
     stroke="none"
     d="m 613.23401,917.05896 c 43.65527,-1.52698 80.01123,14.02661 109.41302,45.14117 21.79071,23.06 33.96405,50.73857 36.55811,82.73897 4.67285,57.6446 -27.13702,113.7045 -79.54157,137.5701 -55.36963,25.216 -120.25628,15.5262 -162.50189,-32.028 -28.17367,-31.714 -41.31299,-69.166 -35.97912,-111.8649 7.58273,-60.70132 56.85864,-110.72769 117.24279,-119.72574 4.7627,-0.70971 9.55457,-1.22326 14.80866,-1.8316 z" /><path
     id="gun_bullet_3"
     fill="#d2d2d2"
     opacity="1"
     stroke="none"
     d="m 961.06293,721.09167 c 68.30757,0.95179 122.09237,44.784 136.92487,111.75965 9.2788,41.89801 -1.6217,79.43915 -26.7052,113.27264 -20.243,27.30457 -47.3074,44.82929 -80.57038,51.55658 -71.53918,14.46856 -136.64435,-24.92785 -160.8609,-90.58288 -28.33521,-76.82129 18.5108,-165.92127 103.53662,-182.73694 8.93451,-1.76697 18.13074,-2.211 27.67499,-3.26905 z" /></g>
</svg>
